<svg width="51" height="65" viewBox="0 0 51 65" fill="none" xmlns="http://www.w3.org/2000/svg">
<path fill-rule="evenodd" clip-rule="evenodd" d="M7.64178 15.5074C3.77579 15.5074 0.641785 18.6414 0.641785 22.5074V57.4791H34.6034C38.4694 57.4791 41.6034 54.3451 41.6034 50.4791V22.5074C41.6034 18.6415 38.4694 15.5074 34.6034 15.5074H7.64178ZM0.641738 57.4791V64.2687L8.83407 57.4791H0.641738Z" fill="white"/>
<path d="M16.8956 38.0393V5.16416C16.8956 2.71597 18.8803 0.731323 21.3285 0.731323H45.3816C47.8298 0.731323 49.8145 2.71597 49.8145 5.16416V33.6065C49.8145 36.0547 47.8298 38.0393 45.3816 38.0393H16.8956ZM16.8956 38.0393V44.0745L23.4794 38.0393L16.8956 38.0393Z" stroke="white"/>
<path d="M8 43C12.5 46.8333 24 52.2 34 43" stroke="#FF0000" stroke-width="2" stroke-linecap="round"/>
</svg>
